<?xml version="1.0" standalone="no"?>
<!DOCTYPE svg PUBLIC "-//W3C//DTD SVG 20010904//EN"
 "http://www.w3.org/TR/2001/REC-SVG-20010904/DTD/svg10.dtd">
<svg version="1.0" xmlns="http://www.w3.org/2000/svg"
 width="204.000000pt" height="192.000000pt" viewBox="0 0 204.000000 192.000000"
 preserveAspectRatio="xMidYMid meet">

<g transform="translate(0.000000,192.000000) scale(0.100000,-0.100000)"
fill="#000000" stroke="none">
<path d="M771 1874 c-73 -66 -108 -132 -126 -236 l-6 -38 -144 0 -144 0 -35
-114 c-20 -63 -36 -116 -36 -119 0 -2 14 -7 30 -10 l30 -6 0 -126 c0 -93 -3
-125 -12 -126 -7 -1 -19 -2 -27 -3 -30 -3 -23 -26 8 -26 l32 0 -3 -142 -3
-143 -25 -3 c-14 -2 -29 -8 -34 -13 -6 -5 283 -9 732 -9 488 0 742 3 742 10 0
6 -13 10 -30 10 l-30 0 0 144 0 145 33 3 c40 4 42 22 2 23 l-30 0 -3 127 -3
127 28 3 c33 4 34 -5 -8 136 l-33 112 -142 0 -142 0 -7 43 c-15 90 -45 148
-111 213 -52 53 -69 64 -96 64 l-33 0 43 -21 c79 -40 155 -152 168 -252 l7
-47 -348 0 -348 0 7 47 c3 25 17 70 30 100 26 56 115 153 140 153 8 0 18 5 21
10 3 6 -5 10 -18 10 -15 0 -45 -18 -76 -46z m899 -649 c-1 -86 -4 -125 -10
-114 -5 9 -8 26 -5 38 2 11 0 21 -6 21 -5 0 -9 -16 -9 -35 0 -19 -5 -35 -11
-35 -7 0 -10 14 -7 35 2 19 0 35 -4 35 -4 0 -8 -16 -8 -35 0 -19 -5 -35 -11
-35 -6 0 -9 15 -8 34 2 19 0 38 -4 42 -4 4 -7 -11 -7 -34 0 -25 -5 -42 -11
-42 -8 0 -10 12 -6 35 3 19 1 37 -4 40 -5 4 -9 -12 -9 -34 0 -54 -20 -53 -22
2 l-1 42 -4 -43 c-4 -39 -6 -42 -21 -30 -11 9 -14 10 -8 1 4 -7 2 -13 -3 -13
-6 0 -11 15 -11 34 0 19 -4 38 -10 41 -6 4 -10 -10 -10 -34 0 -23 -5 -41 -11
-41 -7 0 -10 14 -7 35 2 19 0 35 -4 35 -4 0 -8 -16 -8 -35 0 -19 -5 -35 -11
-35 -7 0 -10 14 -7 35 2 19 0 35 -4 35 -4 0 -8 -16 -8 -35 0 -19 -5 -35 -11
-35 -7 0 -10 14 -7 35 2 19 0 35 -4 35 -4 0 -8 -16 -8 -35 0 -19 -5 -35 -11
-35 -7 0 -10 14 -7 35 2 19 0 35 -4 35 -4 0 -8 -16 -8 -35 0 -19 -5 -35 -11
-35 -6 0 -9 15 -8 34 2 19 0 38 -4 42 -4 4 -7 -11 -7 -34 0 -23 -5 -42 -11
-42 -6 0 -9 15 -8 34 2 19 0 38 -4 42 -4 4 -7 -11 -7 -34 0 -25 -5 -42 -11
-42 -8 0 -10 14 -6 40 3 23 1 38 -4 34 -5 -3 -9 -21 -9 -40 0 -46 -20 -44 -22
4 l-1 37 -4 -37 c-2 -21 -8 -38 -14 -38 -5 0 -10 17 -11 38 l-1 37 -4 -37 c-2
-21 -9 -38 -15 -38 -6 0 -8 15 -6 35 2 19 0 35 -4 35 -4 0 -8 -16 -8 -35 0
-50 -20 -43 -22 8 l-1 42 -4 -42 c-2 -24 -8 -43 -14 -43 -5 0 -10 19 -11 43
l-1 42 -4 -42 c-5 -53 -22 -57 -25 -5 l-1 37 -4 -37 c-2 -21 -9 -38 -15 -38
-6 0 -8 15 -6 35 2 19 0 35 -4 35 -4 0 -8 -16 -8 -35 0 -19 -5 -35 -11 -35 -7
0 -10 14 -7 35 2 19 0 35 -4 35 -4 0 -8 -16 -8 -35 0 -19 -5 -35 -11 -35 -8 0
-10 14 -6 40 3 22 1 40 -4 40 -5 0 -9 -18 -9 -40 0 -51 -19 -53 -22 -2 l-1 37
-4 -37 c-2 -21 -9 -38 -15 -38 -6 0 -8 15 -6 35 2 19 0 35 -4 35 -4 0 -8 -16
-8 -35 0 -19 -5 -35 -11 -35 -6 0 -9 15 -8 34 2 19 0 38 -4 42 -4 4 -7 -11 -7
-34 0 -52 -19 -56 -22 -4 l-1 37 -4 -37 c-2 -21 -8 -38 -14 -38 -5 0 -10 17
-11 38 l-1 37 -4 -37 c-2 -21 -8 -38 -14 -38 -5 0 -10 17 -11 38 l-1 37 -4
-37 c-2 -21 -8 -38 -14 -38 -5 0 -10 17 -11 38 l-1 37 -4 -37 c-2 -21 -8 -38
-14 -38 -5 0 -10 17 -11 38 l-1 37 -4 -37 c-2 -21 -9 -38 -15 -38 -6 0 -9 16
-6 39 2 22 0 37 -4 35 -5 -3 -8 -21 -8 -40 0 -46 -20 -44 -22 4 l-1 37 -4 -37
c-5 -48 -23 -50 -23 -3 0 19 -4 35 -8 35 -4 0 -6 -16 -4 -35 3 -21 0 -35 -7
-35 -6 0 -11 16 -11 35 0 19 -4 35 -8 35 -4 0 -6 -15 -4 -34 2 -18 -1 -37 -7
-40 -7 -5 -11 7 -11 33 0 23 -4 41 -8 41 -4 0 -6 -15 -4 -34 2 -18 -1 -37 -7
-40 -7 -5 -11 7 -11 33 0 23 -4 41 -8 41 -4 0 -6 -16 -4 -35 3 -21 0 -35 -7
-35 -6 0 -11 16 -11 35 0 19 -4 35 -8 35 -4 0 -6 -16 -4 -35 3 -21 0 -35 -7
-35 -6 0 -11 16 -11 35 0 19 -4 35 -8 35 -4 0 -6 -15 -4 -34 2 -18 -1 -37 -7
-40 -7 -5 -11 8 -11 39 0 30 -4 44 -11 40 -6 -4 -8 -22 -6 -41 3 -19 1 -34 -4
-34 -5 0 -9 19 -9 42 0 23 -3 38 -7 34 -4 -4 -6 -23 -4 -42 1 -19 -2 -34 -8
-34 -6 0 -11 16 -11 35 0 19 -4 35 -8 35 -5 0 -7 -13 -6 -29 1 -15 -2 -35 -7
-42 -6 -9 -9 3 -9 34 0 30 -4 46 -10 42 -5 -3 -10 -24 -10 -46 0 -22 -4 -38
-9 -35 -4 3 -9 62 -10 130 l-1 125 77 3 c43 2 340 3 661 3 l582 0 0 -130z m0
-300 l0 -145 -658 2 -657 3 -3 143 -3 142 661 0 660 0 0 -145z"/>
<path d="M450 1323 c0 -5 22 -6 50 -5 45 4 50 2 50 -17 0 -18 -6 -21 -44 -21
-26 0 -46 5 -49 13 -3 7 -6 5 -6 -5 -1 -15 8 -18 49 -18 47 0 50 -1 50 -26 0
-25 -2 -26 -50 -22 -28 1 -50 0 -50 -4 0 -5 25 -8 55 -8 l55 0 0 60 0 60 -55
0 c-30 0 -55 -3 -55 -7z"/>
<path d="M654 1275 l1 -60 53 -3 c28 -2 52 1 52 5 0 4 -22 6 -50 5 -48 -4 -50
-3 -50 22 0 25 3 26 50 26 49 0 50 1 50 30 0 27 -3 30 -32 29 -31 -2 -31 -2
-5 -6 19 -3 27 -10 27 -24 0 -16 -7 -19 -44 -19 -41 0 -45 2 -49 28 -3 15 -4
0 -3 -33z"/>
<path d="M860 1323 c0 -5 22 -6 50 -5 45 4 50 2 50 -17 0 -18 -6 -21 -45 -21
-25 0 -45 5 -45 10 0 6 -4 10 -8 10 -5 0 -9 -7 -9 -15 0 -11 13 -15 54 -15 50
0 53 -2 53 -24 0 -22 -5 -25 -42 -29 l-43 -4 48 -1 47 -2 0 60 0 60 -55 0
c-30 0 -55 -3 -55 -7z"/>
<path d="M1054 1275 l1 -60 53 -3 c49 -3 52 -2 51 20 -1 17 -3 18 -6 6 -3 -14
-15 -18 -49 -18 -40 0 -44 2 -44 25 0 23 3 25 50 25 49 0 50 1 50 30 0 25 -4
30 -22 29 -17 -1 -19 -2 -5 -6 9 -2 17 -13 17 -24 0 -16 -7 -19 -44 -19 -41 0
-45 2 -49 28 -3 15 -4 0 -3 -33z"/>
<path d="M1078 1323 c6 -2 18 -2 25 0 6 3 1 5 -13 5 -14 0 -19 -2 -12 -5z"/>
<path d="M1260 1322 c0 -4 17 -6 38 -4 58 5 62 10 10 11 -27 1 -48 -3 -48 -7z"/>
<path d="M1360 1305 c0 -23 -4 -25 -45 -25 -25 0 -45 5 -45 10 0 6 -4 10 -10
10 -5 0 -10 -7 -10 -15 0 -12 13 -15 55 -15 52 0 55 -1 55 -25 0 -23 -4 -25
-45 -25 -38 0 -47 4 -55 23 -9 22 -9 22 -9 1 -1 -26 16 -34 75 -34 l44 0 0 60
c0 33 -2 60 -5 60 -3 0 -5 -11 -5 -25z"/>
<path d="M1462 1268 c0 -35 3 -48 5 -30 4 31 6 32 49 32 40 0 44 -2 44 -24 0
-22 -5 -25 -42 -29 l-43 -4 48 -1 47 -2 0 60 0 60 -55 0 -55 0 2 -62z m98 32
c0 -17 -7 -20 -45 -20 -38 0 -45 3 -45 20 0 17 7 20 45 20 38 0 45 -3 45 -20z"/>
<path d="M1288 1293 c6 -2 18 -2 25 0 6 3 1 5 -13 5 -14 0 -19 -2 -12 -5z"/>
<path d="M480 939 c0 -105 5 -113 60 -99 24 6 25 8 25 100 l0 95 -42 0 -43 0
0 -96z"/>
<path d="M675 1030 c-1 -3 -2 -47 -2 -97 l0 -93 44 0 43 0 0 98 0 97 -41 0
c-22 0 -42 -2 -44 -5z"/>
<path d="M880 923 l0 -113 65 0 66 0 -3 112 -3 111 -62 2 -63 1 0 -113z"/>
<path d="M1025 1030 c-2 -3 -3 -54 -3 -113 l-1 -107 65 0 64 0 0 113 0 112
-61 0 c-33 0 -62 -2 -64 -5z"/>
<path d="M1270 938 l0 -103 45 3 45 4 0 97 0 96 -45 3 -45 3 0 -103z"/>
<path d="M1470 935 l0 -100 42 1 43 1 0 99 0 99 -42 0 -43 0 0 -100z"/>
<path d="M900 720 c0 -6 43 -10 110 -10 67 0 110 4 110 10 0 6 -43 10 -110 10
-67 0 -110 -4 -110 -10z"/>
<path d="M883 682 c-13 -2 -23 -8 -23 -13 0 -5 64 -9 150 -9 93 0 150 4 150
10 0 6 -6 10 -12 10 -7 0 -65 1 -128 3 -63 1 -125 1 -137 -1z"/>
<path d="M830 620 c0 -6 66 -10 179 -10 109 0 182 4 186 10 4 7 -58 10 -179
10 -117 0 -186 -4 -186 -10z"/>
<path d="M810 575 c0 -13 28 -15 206 -15 160 0 205 3 202 13 -4 9 -56 13 -206
15 -175 2 -202 0 -202 -13z"/>
<path d="M288 342 c3 -88 1 -117 -10 -123 -8 -5 11 -8 47 -8 33 1 52 3 43 6
-14 4 -18 15 -18 59 l0 54 50 0 50 0 0 -54 c0 -44 -4 -55 -17 -59 -10 -3 9 -5
42 -6 35 0 55 3 47 8 -10 6 -13 37 -11 121 l1 114 -41 2 c-22 1 -41 -2 -41 -7
0 -5 5 -9 10 -9 6 0 10 -22 10 -50 l0 -50 -50 0 -50 0 0 50 c0 39 4 50 16 50
8 0 13 4 10 9 -4 5 -25 9 -49 9 l-42 -1 3 -115z"/>
<path d="M638 449 c-39 -15 -68 -67 -68 -123 0 -62 38 -106 101 -115 100 -16
149 24 149 120 0 50 -4 63 -28 90 -23 26 -37 32 -78 35 -27 2 -61 -1 -76 -7z
m102 -19 c29 -29 29 -168 1 -194 -28 -26 -82 -18 -98 14 -21 42 -17 143 8 174
25 31 61 34 89 6z"/>
<path d="M896 437 c-47 -47 -32 -86 48 -123 49 -23 65 -47 50 -71 -24 -39 -88
-27 -108 20 l-14 32 -1 -37 c-1 -42 11 -49 85 -50 49 -1 78 18 89 59 9 36 -17
69 -74 94 -53 22 -69 50 -44 74 21 22 51 18 78 -10 23 -22 25 -22 25 -5 0 24
-8 29 -63 36 -40 6 -49 3 -71 -19z"/>
<path d="M1081 427 c0 -17 3 -25 6 -17 8 20 24 30 50 30 20 0 21 -4 20 -106 0
-98 -2 -106 -21 -114 -15 -6 -1 -9 44 -8 36 0 57 2 48 5 -16 4 -18 18 -18 114
0 109 0 109 24 109 14 0 32 -10 41 -22 l16 -23 -3 30 -3 29 -102 3 -103 3 1
-33z"/>
<path d="M1333 448 c-2 -5 1 -8 6 -8 7 0 11 -39 11 -109 0 -96 -2 -110 -17
-114 -10 -3 30 -5 90 -6 l107 -1 0 29 c0 17 -4 33 -10 36 -5 3 -10 -3 -10 -14
0 -26 -32 -43 -73 -39 -31 3 -32 4 -35 56 -3 49 -2 52 21 52 14 0 31 -10 40
-22 15 -22 16 -21 16 27 l1 50 -19 -24 c-29 -38 -55 -25 -59 32 l-3 47 38 0
c42 0 57 -7 66 -30 3 -9 6 -4 6 13 1 30 5 29 -112 31 -33 0 -61 -2 -64 -6z"/>
<path d="M1580 449 c0 -5 5 -9 10 -9 16 0 13 -217 -2 -223 -7 -3 29 -6 80 -6
l92 -1 -1 38 c0 29 -2 33 -9 17 -12 -32 -36 -47 -67 -43 l-28 3 -3 108 c-2 95
-1 107 14 107 10 0 15 3 12 6 -10 9 -98 13 -98 3z"/>
<path d="M366 103 c-6 -15 -8 -15 -16 -3 -6 8 -10 11 -10 5 0 -5 4 -17 10 -25
8 -12 10 -12 16 3 3 9 10 14 15 11 5 -3 9 -1 9 5 0 18 -18 21 -24 4z"/>
<path d="M542 95 c0 -16 2 -22 5 -12 2 9 2 23 0 30 -3 6 -5 -1 -5 -18z"/>
<path d="M591 97 c-1 -25 1 -27 19 -17 23 12 27 22 6 14 -8 -3 -16 2 -19 13
-3 12 -5 8 -6 -10z"/>
<path d="M650 93 c0 -16 4 -23 8 -17 4 6 14 14 22 17 12 4 11 6 -3 6 -10 1
-15 6 -12 11 3 6 1 10 -4 10 -6 0 -11 -12 -11 -27z"/>
<path d="M740 105 c10 -12 10 -15 -3 -15 -9 0 -18 -3 -20 -7 -3 -5 7 -8 23 -8
25 0 26 2 17 23 -6 12 -15 22 -20 22 -5 0 -4 -7 3 -15z"/>
<path d="M795 110 c3 -5 8 -10 11 -10 2 0 4 5 4 10 0 6 -5 10 -11 10 -5 0 -7
-4 -4 -10z"/>
<path d="M871 113 c0 -4 4 -17 8 -27 6 -15 9 -16 13 -5 3 8 -1 20 -8 27 -8 7
-14 9 -13 5z"/>
<path d="M973 94 c0 -17 2 -22 7 -13 5 6 6 18 3 26 -8 19 -10 16 -10 -13z"/>
<path d="M1112 95 c0 -16 2 -22 5 -12 2 9 2 23 0 30 -3 6 -5 -1 -5 -18z"/>
<path d="M1162 95 c0 -16 2 -22 5 -12 2 9 2 23 0 30 -3 6 -5 -1 -5 -18z"/>
<path d="M1216 105 c-10 -7 -16 -20 -13 -27 4 -10 6 -10 6 1 1 10 5 11 14 3 9
-8 12 -4 12 14 0 13 0 24 0 24 0 0 -8 -7 -19 -15z"/>
<path d="M1425 110 c-5 -9 -4 -11 3 -6 7 4 12 2 12 -3 0 -6 -7 -11 -15 -11 -8
0 -15 -3 -15 -7 0 -5 11 -8 25 -8 29 0 30 4 12 30 -11 14 -16 15 -22 5z"/>
<path d="M1480 106 c0 -9 5 -16 10 -16 6 0 10 4 10 9 0 6 -4 13 -10 16 -5 3
-10 -1 -10 -9z"/>
<path d="M1531 104 c0 -11 3 -14 6 -6 3 7 2 16 -1 19 -3 4 -6 -2 -5 -13z"/>
<path d="M1572 95 c0 -16 2 -22 5 -12 2 9 2 23 0 30 -3 6 -5 -1 -5 -18z"/>
<path d="M1661 96 c7 -15 15 -23 17 -16 3 7 -3 19 -13 28 -15 16 -16 15 -4
-12z"/>
<path d="M448 93 c6 -2 18 -2 25 0 6 3 1 5 -13 5 -14 0 -19 -2 -12 -5z"/>
<path d="M1260 85 c0 -8 5 -15 11 -15 5 0 8 4 4 9 -3 5 3 12 12 14 14 4 13 5
-4 6 -14 1 -23 -5 -23 -14z"/>
<path d="M1360 90 c0 -5 7 -7 15 -4 8 4 15 8 15 10 0 2 -7 4 -15 4 -8 0 -15
-4 -15 -10z"/>
<path d="M395 80 c-3 -5 -1 -10 4 -10 6 0 11 5 11 10 0 6 -2 10 -4 10 -3 0 -8
-4 -11 -10z"/>
</g>
</svg>
