<?xml version="1.0" standalone="no"?>
<!DOCTYPE svg PUBLIC "-//W3C//DTD SVG 20010904//EN"
 "http://www.w3.org/TR/2001/REC-SVG-20010904/DTD/svg10.dtd">
<svg version="1.0" xmlns="http://www.w3.org/2000/svg"
 width="225.000000pt" height="225.000000pt" viewBox="0 0 225.000000 225.000000"
 preserveAspectRatio="xMidYMid meet">

<g transform="translate(0.000000,225.000000) scale(0.100000,-0.100000)"
fill="#000000" stroke="none">
<path d="M693 1705 c-71 -43 -84 -84 -81 -263 l3 -150 82 71 81 72 1 63 1 62
115 0 115 0 0 -115 0 -115 115 0 115 0 0 115 0 115 115 0 115 0 2 -251 3 -251
83 73 82 72 0 193 c0 205 -5 231 -48 278 -52 55 -58 56 -474 56 l-383 0 -42
-25z"/>
<path d="M693 1304 l-83 -76 0 -194 c0 -141 4 -204 14 -227 17 -43 78 -95 118
-102 18 -3 202 -5 410 -3 l376 3 39 31 c66 53 74 80 71 255 l-3 153 -82 -74
-83 -74 0 -63 0 -63 -115 0 -115 0 0 115 0 115 -115 0 -115 0 0 -115 0 -115
-115 0 -115 0 -2 255 -3 254 -82 -75z"/>
<path d="M87 193 c-12 -12 -7 -22 16 -33 21 -11 22 -11 2 5 -17 14 -18 17 -5
25 8 5 10 10 4 10 -6 0 -14 -3 -17 -7z"/>
<path d="M1157 93 c-4 -6 -17 -9 -30 -7 -19 4 -19 3 -3 -4 11 -5 29 -7 40 -6
12 1 30 3 41 3 16 1 17 3 5 11 -9 5 -19 5 -26 -1 -8 -7 -13 -6 -16 3 -3 8 -6
9 -11 1z"/>
<path d="M1290 88 c0 -6 8 -7 17 -4 9 4 20 1 25 -6 7 -10 9 -9 5 2 -4 16 -47
23 -47 8z"/>
<path d="M1396 83 c-6 -14 -5 -15 5 -6 7 7 10 15 7 18 -3 3 -9 -2 -12 -12z"/>
</g>
</svg>
